<?xml version="1.0" standalone="no"?>
<!DOCTYPE svg PUBLIC "-//W3C//DTD SVG 20010904//EN"
 "http://www.w3.org/TR/2001/REC-SVG-20010904/DTD/svg10.dtd">
<svg version="1.0" xmlns="http://www.w3.org/2000/svg"
 width="225.000000pt" height="225.000000pt" viewBox="0 0 225.000000 225.000000"
 preserveAspectRatio="xMidYMid meet">
<metadata>
Created by potrace 1.10, written by Peter Selinger 2001-2011
</metadata>
<g transform="translate(0.000000,225.000000) scale(0.100000,-0.100000)"
fill="#000000" stroke="none">
<path d="M480 1957 c0 -8 10 -23 23 -35 22 -21 32 -22 225 -22 l202 0 0 -85 0
-85 -140 0 c-168 0 -181 -8 -107 -71 82 -71 109 -138 72 -179 -33 -36 -98 -18
-166 46 -22 21 -28 23 -38 11 -9 -12 1 -26 59 -76 61 -53 77 -61 111 -61 57 0
105 23 124 60 24 46 13 73 -58 140 l-62 59 103 1 102 0 0 -84 c0 -51 -4 -88
-11 -92 -13 -8 58 -84 79 -84 11 0 13 43 10 250 l-3 250 92 0 91 0 7 -30 c4
-16 4 -43 0 -59 -7 -34 -47 -81 -69 -81 -8 0 -18 -9 -21 -20 -16 -49 105 -140
185 -140 19 0 52 9 73 20 l37 20 0 -59 c0 -33 -5 -63 -11 -67 -13 -8 58 -84
78 -84 11 0 13 47 11 250 l-3 250 53 0 c59 0 67 13 29 48 l-23 22 -527 0
c-431 0 -527 -2 -527 -13z m508 -25 c10 -7 8 -12 -6 -25 -20 -18 -26 -15 -46
21 -8 14 31 17 52 4z m250 -4 c-7 -19 -38 -22 -38 -4 0 10 9 16 21 16 12 0 19
-5 17 -12z m224 3 c14 -2 -4 -31 -19 -31 -21 0 -47 27 -30 33 6 2 19 3 27 1 8
-1 18 -3 22 -3z m-62 -119 l0 -88 -39 -38 c-50 -49 -105 -69 -145 -52 -38 16
-44 34 -13 45 13 5 36 24 50 41 33 39 35 90 7 143 l-20 37 80 0 80 0 0 -88z
m-181 -78 c-12 -13 -27 -24 -32 -24 -5 0 -16 -8 -23 -17 -7 -10 -14 -13 -14
-7 0 6 12 21 26 35 14 13 33 38 42 54 16 29 17 29 20 7 2 -15 -5 -33 -19 -48z
m-249 -38 c0 -32 -11 -39 -32 -19 -17 15 -17 18 -2 34 20 22 34 16 34 -15z
m470 -32 c0 -50 -2 -55 -17 -49 -10 4 -28 10 -40 12 -22 5 -21 6 10 49 18 24
35 43 40 44 4 0 7 -25 7 -56z"/>
<path d="M140 1197 c0 -8 10 -23 23 -35 20 -19 35 -22 115 -22 l92 0 0 -45 c0
-45 0 -45 -35 -45 -43 0 -90 -23 -105 -49 -19 -37 -12 -88 16 -110 l25 -20
-32 -29 c-26 -23 -32 -38 -37 -81 l-5 -53 129 -129 c100 -101 131 -126 141
-117 11 9 -5 31 -81 107 -52 53 -98 109 -101 124 -11 41 3 94 28 112 28 20 81
19 101 -1 20 -20 21 -78 1 -94 -21 -18 -19 -33 10 -60 21 -20 27 -21 42 -9 51
40 58 102 18 155 -29 38 -98 74 -142 74 -33 0 -43 13 -43 59 0 40 17 51 84 51
l61 0 -3 80 -4 80 186 0 186 0 0 -90 0 -90 -124 0 c-145 0 -154 -5 -127 -66
17 -36 72 -94 90 -94 12 0 49 43 59 69 7 20 16 24 55 25 l47 1 0 -80 c0 -44
-5 -87 -10 -95 -7 -11 0 -24 27 -52 65 -67 65 -68 61 217 l-3 255 100 0 101 0
-2 -87 -2 -88 -43 -3 c-62 -5 -72 -16 -53 -60 16 -39 48 -78 76 -93 25 -13 50
2 73 45 19 35 19 35 98 38 43 2 81 1 83 -1 10 -10 3 -158 -8 -169 -9 -9 -3
-21 27 -52 21 -22 43 -40 47 -40 4 0 8 115 8 255 l0 255 70 0 70 0 0 -203 c0
-145 -3 -206 -12 -215 -9 -9 -3 -21 27 -52 21 -22 43 -40 47 -40 4 0 8 115 8
255 l0 255 180 0 180 0 0 -90 0 -90 -130 0 c-152 0 -160 -5 -118 -79 51 -92
97 -100 134 -24 18 36 22 38 64 37 l45 0 3 -78 c2 -50 -1 -83 -9 -92 -10 -12
-5 -22 26 -54 22 -22 43 -40 47 -40 4 0 8 115 8 255 l0 255 55 0 c30 0 55 3
55 7 0 4 -12 20 -27 35 l-27 28 -973 0 c-801 0 -973 -2 -973 -13z m1165 -17
c25 9 35 5 35 -17 0 -7 -9 -13 -21 -13 -12 0 -17 4 -13 11 4 8 0 9 -15 4 -16
-5 -21 -2 -20 12 0 10 3 13 5 6 4 -8 13 -9 29 -3z m-871 -9 c13 -1 -15 -31
-29 -31 -7 0 -18 6 -24 14 -13 16 1 25 29 20 8 -1 19 -3 24 -3z m436 -5 c0
-24 -26 -38 -40 -22 -6 9 -9 19 -7 23 9 14 47 13 47 -1z m276 1 c4 -4 1 -13
-6 -22 -12 -14 -15 -14 -31 1 -10 9 -16 21 -13 25 6 10 40 7 50 -4z m425 2
c16 -8 18 -13 8 -25 -10 -13 -14 -12 -30 2 -10 9 -16 21 -13 25 7 12 11 11 35
-2z m444 -19 c-14 -15 -21 -17 -32 -9 -22 19 -15 29 19 29 30 0 31 0 13 -20z
m-695 -100 l0 -90 -80 0 -80 0 0 90 0 90 80 0 80 0 0 -90z m55 71 c3 -6 -1
-13 -9 -18 -8 -4 -16 -19 -19 -33 -2 -14 -4 -6 -4 18 0 40 17 57 32 33z m-232
-168 c14 -17 13 -21 -22 -62 -41 -48 -58 -50 -86 -7 -19 28 -13 46 14 46 11 0
29 9 42 20 30 24 32 24 52 3z m-293 -23 c0 -19 -5 -30 -14 -30 -19 0 -29 30
-15 46 18 22 29 16 29 -16z m510 -12 c0 -24 -27 -23 -40 1 -8 16 -6 22 7 30
20 11 33 -2 33 -31z m640 1 c0 -27 -2 -29 -20 -19 -22 12 -26 30 -8 48 17 17
28 5 28 -29z m-1300 5 c0 -16 -43 -74 -55 -74 -19 0 -55 49 -48 66 3 9 21 14
54 14 27 0 49 -3 49 -6z m1144 -6 c-23 -39 -47 -68 -57 -68 -18 1 -50 49 -43
66 4 10 21 14 56 14 38 0 49 -3 44 -12z m-1544 -76 c0 -12 -39 -46 -45 -41 -6
7 24 49 36 49 5 0 9 -4 9 -8z"/>
<path d="M774 542 c-14 -9 -3 -42 20 -61 11 -9 20 -10 29 -3 44 35 87 15 87
-42 0 -45 -41 -86 -86 -86 -49 0 -79 15 -133 65 -37 35 -51 42 -58 33 -16 -20
145 -167 189 -174 47 -7 118 31 142 76 27 52 16 99 -38 155 -39 41 -46 45 -92
45 -27 0 -54 -4 -60 -8z"/>
</g>
</svg>
