<?xml version="1.0" standalone="no"?>
<!DOCTYPE svg PUBLIC "-//W3C//DTD SVG 20010904//EN"
 "http://www.w3.org/TR/2001/REC-SVG-20010904/DTD/svg10.dtd">
<svg version="1.0" xmlns="http://www.w3.org/2000/svg"
 width="300.000000pt" height="300.000000pt" viewBox="0 0 300.000000 300.000000"
 preserveAspectRatio="xMidYMid meet">
<metadata>
Created by potrace 1.10, written by Peter Selinger 2001-2011
</metadata>
<g transform="translate(0.000000,300.000000) scale(0.100000,-0.100000)"
fill="#000000" stroke="none">
<path d="M1532 2184 c-62 -31 -115 -90 -136 -152 -18 -50 -21 -138 -7 -147 18
-11 41 26 41 66 0 44 21 103 48 132 29 33 89 57 140 57 133 0 228 -160 154
-259 l-19 -26 -199 -3 c-199 -2 -213 -5 -214 -39 0 -10 29 -13 113 -13 l112 0
-3 -94 -3 -93 -38 -12 c-21 -6 -54 -11 -72 -11 l-34 0 -1 55 c-2 125 -109 178
-172 85 -41 -61 -14 -134 66 -176 38 -20 40 -23 26 -42 -8 -11 -34 -28 -59
-37 -53 -21 -104 -14 -156 20 -35 23 -38 23 -53 6 -23 -25 -20 -47 10 -70 44
-34 100 -45 164 -31 46 10 64 21 108 66 40 41 59 54 82 54 40 0 80 17 80 34 0
11 46 36 66 36 9 0 3 -69 -6 -75 -6 -4 -10 -58 -10 -130 0 -133 9 -156 42
-115 17 21 18 41 16 277 l-3 253 55 0 55 0 -3 -265 c-3 -259 -2 -265 17 -265
11 0 25 9 31 19 6 12 10 115 10 265 l0 246 23 0 c25 0 47 17 47 37 0 7 -9 13
-19 13 -20 0 -20 1 1 46 30 69 23 165 -17 221 -65 91 -180 118 -283 67z m-209
-486 c20 -16 51 -88 37 -88 -18 0 -80 62 -80 81 0 22 19 25 43 7z m78 -120 c7
-13 5 -20 -9 -27 -15 -8 -24 -5 -41 10 -12 11 -19 24 -17 28 9 14 57 6 67 -11z"/>
<path d="M302 1838 c-32 -32 -14 -38 108 -38 l120 0 0 -99 0 -99 -31 -11 c-49
-17 -93 -13 -120 10 -51 45 -94 46 -105 3 -7 -28 7 -49 48 -70 21 -11 28 -22
28 -44 0 -63 -97 -84 -169 -37 -93 62 -121 198 -56 276 30 35 34 74 7 69 -27
-5 -79 -92 -92 -152 -18 -90 6 -171 72 -233 41 -40 76 -53 137 -53 64 0 121
40 147 104 15 36 24 46 42 46 12 0 38 7 57 14 l35 15 0 -188 c0 -103 3 -191 6
-194 4 -3 15 -2 25 4 18 9 19 27 19 323 l0 314 88 4 c48 2 131 2 185 -1 l97
-3 0 -130 c0 -147 -7 -166 -73 -200 -56 -28 -112 -20 -149 22 -40 43 -37 82 7
116 46 35 75 83 75 126 0 42 -15 58 -55 58 -37 0 -55 -16 -55 -48 0 -19 4 -23
20 -19 10 3 25 -1 31 -9 9 -12 2 -24 -39 -63 -75 -72 -88 -144 -41 -212 20
-29 84 -59 125 -59 35 0 94 27 127 57 l27 27 0 -162 c0 -126 3 -162 13 -162
35 0 37 19 37 342 l0 318 40 0 c28 0 42 5 49 19 6 10 7 21 4 25 -3 3 -180 6
-393 6 -287 0 -389 -3 -398 -12z m97 -304 c-12 -15 -12 -15 -76 42 -25 23 -1
21 43 -3 37 -21 43 -28 33 -39z"/>
<path d="M2116 1828 c-27 -39 -20 -48 35 -48 67 0 109 -38 109 -97 0 -124
-174 -153 -296 -50 -18 15 -36 27 -41 27 -14 0 -43 -34 -43 -49 0 -17 232
-282 313 -358 197 -184 422 -211 597 -73 75 60 62 115 -13 57 -66 -51 -130
-72 -212 -72 -151 1 -267 72 -453 278 -29 32 -52 59 -52 61 0 1 14 1 30 -2
109 -16 231 95 230 209 -1 42 -37 107 -69 123 -46 24 -116 21 -135 -6z m-136
-242 c6 -8 34 -22 61 -31 l50 -17 -27 -25 c-20 -18 -24 -27 -15 -36 6 -6 11
-15 11 -19 0 -9 -123 118 -128 133 -6 15 35 10 48 -5z"/>
<path d="M2356 1824 c-10 -25 2 -33 39 -27 l35 6 0 -237 c0 -187 3 -236 13
-236 34 0 37 22 37 247 l0 223 59 0 c65 0 75 -7 116 -83 l19 -36 -26 -28 c-27
-28 -48 -72 -48 -98 0 -8 11 -26 24 -41 21 -26 25 -27 54 -15 38 16 56 58 49
116 -4 42 -3 46 22 51 14 3 32 8 40 10 8 2 22 2 32 -1 18 -6 19 -19 19 -169 0
-89 3 -166 7 -169 3 -4 15 0 25 10 16 15 18 36 18 236 l0 219 26 -5 c24 -4 54
14 54 34 0 5 -124 9 -304 9 -269 0 -305 -2 -310 -16z m484 -64 c0 -40 0 -40
-39 -40 -22 0 -51 -4 -64 -9 -23 -9 -27 -6 -50 40 l-26 49 89 0 90 0 0 -40z
m-150 -169 c0 -45 -15 -60 -37 -38 -13 13 -13 18 1 46 22 42 36 39 36 -8z"/>
<path d="M1472 1482 c-59 -79 -120 -206 -133 -277 -16 -88 -5 -178 31 -252 94
-190 350 -220 498 -59 64 70 86 125 87 218 0 67 -3 79 -24 102 -35 37 -81 43
-136 16 -61 -30 -97 -78 -103 -140 -4 -42 -1 -52 21 -74 15 -14 37 -26 49 -26
35 0 68 27 68 56 0 23 -3 25 -28 19 -32 -7 -66 22 -60 51 5 27 55 58 93 58 51
0 70 -24 69 -87 -1 -64 -28 -120 -83 -170 -128 -116 -359 -48 -416 122 -25 77
-18 197 18 275 26 56 99 167 134 201 15 16 15 17 -3 14 -10 -2 -24 -1 -29 3
-6 3 -30 -19 -53 -50z"/>
</g>
</svg>
